<svg xmlns="http://www.w3.org/2000/svg" width="20" height="20" viewBox="0 0 20 20">
  <path d="M16.93,4.1 C15.75,3.56 14.5,3.16 13.2,2.92 C13.18,2.92 13.16,2.93 13.15,2.95 C13,3.22 12.82,3.58 12.7,3.87 C11.3,3.64 9.91,3.64 8.54,3.87 C8.41,3.57 8.23,3.22 8.08,2.95 C8.07,2.93 8.05,2.92 8.03,2.92 C6.73,3.16 5.48,3.56 4.3,4.1 C4.29,4.1 4.28,4.11 4.27,4.12 C1.88,7.8 1.21,11.38 1.54,14.91 C1.54,14.93 1.55,14.95 1.57,14.96 C3.17,16.14 4.72,16.84 6.24,17.3 C6.26,17.31 6.28,17.3 6.29,17.28 C6.65,16.78 6.97,16.25 7.24,15.69 C7.25,15.66 7.24,15.63 7.21,15.62 C6.72,15.42 6.26,15.19 5.81,14.92 C5.78,14.9 5.78,14.86 5.8,14.84 C5.9,14.77 6,14.69 6.1,14.61 C6.11,14.6 6.13,14.6 6.15,14.61 C9.64,16.24 13.4,16.24 16.85,14.61 C16.87,14.6 16.89,14.6 16.9,14.61 C17,14.69 17.1,14.77 17.2,14.84 C17.23,14.86 17.23,14.9 17.2,14.92 C16.75,15.2 16.28,15.42 15.79,15.62 C15.76,15.63 15.75,15.66 15.76,15.69 C16.04,16.25 16.36,16.78 16.71,17.28 C16.72,17.3 16.74,17.31 16.76,17.3 C18.29,16.84 19.84,16.14 21.44,14.96 C21.46,14.95 21.47,14.93 21.47,14.91 C21.87,10.82 20.83,7.27 18.73,4.12 C18.72,4.11 18.71,4.1 18.7,4.1 L16.93,4.1 Z M7.52,12.59 C6.63,12.59 5.9,11.78 5.9,10.78 C5.9,9.78 6.61,8.97 7.52,8.97 C8.44,8.97 9.16,9.79 9.14,10.78 C9.14,11.78 8.43,12.59 7.52,12.59 Z M13.5,12.59 C12.61,12.59 11.88,11.78 11.88,10.78 C11.88,9.78 12.59,8.97 13.5,8.97 C14.42,8.97 15.14,9.79 15.12,10.78 C15.12,11.78 14.42,12.59 13.5,12.59 Z" fill="#FFFFFF" />
</svg>