<svg xmlns="http://www.w3.org/2000/svg" width="20" height="20" viewBox="0 0 20 20">
  <path d="M10,0.3 C4.5,0.3 0,4.8 0,10.3 C0,14.7 2.9,18.4 6.8,19.7 C7.3,19.8 7.5,19.5 7.5,19.2 C7.5,19 7.5,18.3 7.5,17.5 C4.7,18.1 4.1,16.1 4.1,16.1 C3.7,15 3,14.7 3,14.7 C2.1,14.1 3.1,14.1 3.1,14.1 C4.1,14.2 4.6,15.1 4.6,15.1 C5.5,16.6 7,16.1 7.5,15.9 C7.6,15.2 7.9,14.7 8.1,14.5 C5.9,14.2 3.6,13.4 3.6,9.6 C3.6,8.5 4,7.6 4.6,6.9 C4.5,6.7 4.2,5.7 4.7,4.3 C4.7,4.3 5.6,4 7.5,5.3 C8.3,5.1 9.1,5 10,5 C10.9,5 11.7,5.1 12.5,5.3 C14.4,4 15.3,4.3 15.3,4.3 C15.8,5.7 15.5,6.7 15.4,6.9 C16,7.6 16.4,8.5 16.4,9.6 C16.4,13.4 14.1,14.2 11.9,14.5 C12.2,14.8 12.5,15.4 12.5,16.3 C12.5,17.6 12.5,18.9 12.5,19.2 C12.5,19.5 12.7,19.8 13.2,19.7 C17.1,18.4 20,14.7 20,10.3 C20,4.8 15.5,0.3 10,0.3" fill="#FFFFFF" />
</svg>