<svg xmlns="http://www.w3.org/2000/svg" width="20" height="20" viewBox="0 0 20 20">
  <path d="M19,4.74 C18.34,5.06 17.62,5.28 16.88,5.38 C17.64,4.92 18.22,4.18 18.5,3.3 C17.78,3.74 16.98,4.04 16.14,4.22 C15.46,3.46 14.48,3 13.38,3 C11.28,3 9.58,4.7 9.58,6.8 C9.58,7.12 9.62,7.42 9.68,7.72 C6.5,7.56 3.66,6.06 1.78,3.78 C1.42,4.38 1.22,5.06 1.22,5.8 C1.22,7.18 1.94,8.4 3.02,9.1 C2.42,9.08 1.84,8.92 1.34,8.64 L1.34,8.7 C1.34,10.54 2.66,12.08 4.42,12.46 C4.08,12.54 3.72,12.6 3.34,12.6 C3.08,12.6 2.82,12.56 2.58,12.52 C3.1,14.04 4.5,15.14 6.18,15.16 C4.88,16.18 3.22,16.8 1.42,16.8 C1.08,16.8 0.76,16.78 0.44,16.74 C2.14,17.84 4.16,18.48 6.32,18.48 C13.38,18.48 17.26,12.66 17.26,7.62 C17.26,7.44 17.26,7.26 17.24,7.08 C18,6.56 18.64,5.9 19.16,5.14 L19,4.74 Z" fill="#FFFFFF" />
</svg>