<?xml version="1.0" encoding="UTF-8"?>
<svg width="24px" height="24px" viewBox="0 0 24 24" version="1.1" xmlns="http://www.w3.org/2000/svg" xmlns:xlink="http://www.w3.org/1999/xlink">
    <title>AI Assistant Icon</title>
    <g stroke="none" stroke-width="1" fill="none" fill-rule="evenodd">
        <g transform="translate(2.000000, 2.000000)" stroke="#FFFFFF" stroke-width="2">
            <circle cx="10" cy="10" r="10"></circle>
            <path d="M5,8 C5,6.34314575 6.34314575,5 8,5 L12,5 C13.6568542,5 15,6.34314575 15,8 L15,12 C15,13.6568542 13.6568542,15 12,15 L8,15 C6.34314575,15 5,13.6568542 5,12 L5,8 Z" stroke-linecap="round" stroke-linejoin="round"></path>
            <path d="M10,5 L10,15" stroke-linecap="round" stroke-linejoin="round"></path>
            <path d="M5,10 L15,10" stroke-linecap="round" stroke-linejoin="round"></path>
            <path d="M7,7 L7,7" stroke-linecap="round" stroke-linejoin="round"></path>
            <path d="M13,7 L13,7" stroke-linecap="round" stroke-linejoin="round"></path>
            <path d="M7,13 L7,13" stroke-linecap="round" stroke-linejoin="round"></path>
            <path d="M13,13 L13,13" stroke-linecap="round" stroke-linejoin="round"></path>
        </g>
    </g>
</svg>